# xmcd
#
# Track frame offsets:
#	150
#	931
#	13874
#	43961
#	64076
#	78801
#	94300
#	108259
#	121968
#	138413
#	153974
#	171511
#	186422
#	204023
#	214596
#	229465
#	243984
#	256697
#	269632
#	283503
#
# Disc length: 3957 seconds
#
# Revision: 1
# Processed by: cddbd v1.5.2PL0 Copyright (c) Steve Scherf et al.
# Submitted via: audiograbber 1.83.01
#
DISCID=140f7314
DTITLE=Tom Astor - The Best of Tom Astor
DYEAR=2002
DGENRE=Country
TTITLE0=leer
TTITLE1=Wer hat ein Herz, das nie zerbricht
TTITLE2=Sie ist jung, und ich ein mann
TTITLE3=Der Feigling des Jahrunderts
TTITLE4=Disco Wester Rodeo
TTITLE5=Tom Dooley
TTITLE6=Die Frau mit den Gurt
TTITLE7=Ein Mann der Nacht
TTITLE8=Angie
TTITLE9=Und in Hamburg sitzt Gabi
TTITLE10=Blaue Blume
TTITLE11=Sonntagmorgen ohne dich
TTITLE12=Mein Freund Charly
TTITLE13=Einmal im Jahr
TTITLE14=Das Lied ist für die Mädchen
TTITLE15=Das letzte Hemd hat keine Taschen
TTITLE16=Wenn´s so weiter geht
TTITLE17=Und so bin ich auf den Hund gekommen
TTITLE18=Pleite, ich bin Pleite
TTITLE19=Ich trinke noch ein Glas mit meinen Freunden
EXTD=
EXTT0=
EXTT1=
EXTT2=
EXTT3=
EXTT4=
EXTT5=
EXTT6=
EXTT7=
EXTT8=
EXTT9=
EXTT10=
EXTT11=
EXTT12=
EXTT13=
EXTT14=
EXTT15=
EXTT16=
EXTT17=
EXTT18=
EXTT19=
PLAYORDER=
